<svg width="1440" height="1024" viewBox="0 0 1440 1024" fill="none" xmlns="http://www.w3.org/2000/svg">
<rect width="1440" height="1024" fill="white"/>

<!-- Advanced gradient definitions -->
<defs>
  <linearGradient id="grad1" x1="0%" y1="0%" x2="100%" y2="100%">
    <stop offset="0%" style="stop-color:#61A5C2;stop-opacity:0.8" />
    <stop offset="100%" style="stop-color:#4A8BA8;stop-opacity:0.4" />
  </linearGradient>
  <linearGradient id="grad2" x1="0%" y1="0%" x2="100%" y2="0%">
    <stop offset="0%" style="stop-color:#61A5C2;stop-opacity:0.7" />
    <stop offset="100%" style="stop-color:#7BB3D1;stop-opacity:0.3" />
  </linearGradient>
</defs>

<!-- Complex neural network - Top left quadrant -->
<g opacity="0.5">
  <circle cx="120" cy="150" r="5" fill="#61A5C2"/>
  <circle cx="220" cy="100" r="4" fill="#4A8BA8"/>
  <circle cx="320" cy="180" r="6" fill="#61A5C2"/>
  <circle cx="280" cy="280" r="4" fill="#7BB3D1"/>
  <circle cx="180" cy="320" r="5" fill="#61A5C2"/>
  <circle cx="80" cy="250" r="4" fill="#4A8BA8"/>
  <circle cx="200" cy="200" r="3" fill="#7BB3D1"/>
  <circle cx="250" cy="150" r="3" fill="#61A5C2"/>
  <circle cx="150" cy="280" r="4" fill="#4A8BA8"/>
  
  <!-- Primary network -->
  <line x1="120" y1="150" x2="220" y2="100" stroke="url(#grad1)" stroke-width="2"/>
  <line x1="220" y1="100" x2="320" y2="180" stroke="url(#grad1)" stroke-width="2"/>
  <line x1="320" y1="180" x2="280" y2="280" stroke="url(#grad1)" stroke-width="2"/>
  <line x1="280" y1="280" x2="180" y2="320" stroke="url(#grad1)" stroke-width="2"/>
  <line x1="180" y1="320" x2="80" y2="250" stroke="url(#grad1)" stroke-width="2"/>
  <line x1="80" y1="250" x2="120" y2="150" stroke="url(#grad1)" stroke-width="2"/>
  
  <!-- Dense cross connections -->
  <line x1="120" y1="150" x2="280" y2="280" stroke="#61A5C2" stroke-width="1" opacity="0.6"/>
  <line x1="220" y1="100" x2="180" y2="320" stroke="#61A5C2" stroke-width="1" opacity="0.6"/>
  <line x1="320" y1="180" x2="80" y2="250" stroke="#61A5C2" stroke-width="1" opacity="0.6"/>
  <line x1="200" y1="200" x2="250" y2="150" stroke="#7BB3D1" stroke-width="1" opacity="0.5"/>
  <line x1="200" y1="200" x2="150" y2="280" stroke="#7BB3D1" stroke-width="1" opacity="0.5"/>
  <line x1="250" y1="150" x2="280" y2="280" stroke="#4A8BA8" stroke-width="1" opacity="0.5"/>
  <line x1="150" y1="280" x2="320" y2="180" stroke="#4A8BA8" stroke-width="1" opacity="0.5"/>
</g>

<!-- Complex neural network - Top right quadrant -->
<g opacity="0.5">
  <circle cx="1200" cy="150" r="5" fill="#61A5C2"/>
  <circle cx="1320" cy="120" r="4" fill="#7BB3D1"/>
  <circle cx="1380" cy="220" r="6" fill="#4A8BA8"/>
  <circle cx="1340" cy="320" r="4" fill="#61A5C2"/>
  <circle cx="1240" cy="360" r="5" fill="#7BB3D1"/>
  <circle cx="1140" cy="300" r="4" fill="#4A8BA8"/>
  <circle cx="1100" cy="200" r="5" fill="#61A5C2"/>
  <circle cx="1280" cy="180" r="3" fill="#7BB3D1"/>
  <circle cx="1260" cy="260" r="4" fill="#4A8BA8"/>
  <circle cx="1180" cy="240" r="3" fill="#61A5C2"/>
  
  <!-- Primary network -->
  <line x1="1200" y1="150" x2="1320" y2="120" stroke="url(#grad1)" stroke-width="2"/>
  <line x1="1320" y1="120" x2="1380" y2="220" stroke="url(#grad1)" stroke-width="2"/>
  <line x1="1380" y1="220" x2="1340" y2="320" stroke="url(#grad1)" stroke-width="2"/>
  <line x1="1340" y1="320" x2="1240" y2="360" stroke="url(#grad1)" stroke-width="2"/>
  <line x1="1240" y1="360" x2="1140" y2="300" stroke="url(#grad1)" stroke-width="2"/>
  <line x1="1140" y1="300" x2="1100" y2="200" stroke="url(#grad1)" stroke-width="2"/>
  <line x1="1100" y1="200" x2="1200" y2="150" stroke="url(#grad1)" stroke-width="2"/>
  
  <!-- Dense cross connections -->
  <line x1="1200" y1="150" x2="1340" y2="320" stroke="#61A5C2" stroke-width="1" opacity="0.6"/>
  <line x1="1320" y1="120" x2="1240" y2="360" stroke="#61A5C2" stroke-width="1" opacity="0.6"/>
  <line x1="1380" y1="220" x2="1100" y2="200" stroke="#61A5C2" stroke-width="1" opacity="0.6"/>
  <line x1="1280" y1="180" x2="1260" y2="260" stroke="#7BB3D1" stroke-width="1" opacity="0.5"/>
  <line x1="1280" y1="180" x2="1180" y2="240" stroke="#7BB3D1" stroke-width="1" opacity="0.5"/>
  <line x1="1260" y1="260" x2="1140" y2="300" stroke="#4A8BA8" stroke-width="1" opacity="0.5"/>
  <line x1="1180" y1="240" x2="1340" y2="320" stroke="#4A8BA8" stroke-width="1" opacity="0.5"/>
</g>

<!-- Central complex hexagonal network - Reduced for text readability -->
<g opacity="0.3">
  <circle cx="720" cy="400" r="6" fill="#61A5C2"/>
  <circle cx="820" cy="350" r="5" fill="#4A8BA8"/>
  <circle cx="870" cy="450" r="5" fill="#7BB3D1"/>
  <circle cx="820" cy="550" r="5" fill="#61A5C2"/>
  <circle cx="720" cy="600" r="6" fill="#4A8BA8"/>
  <circle cx="620" cy="550" r="5" fill="#7BB3D1"/>
  <circle cx="570" cy="450" r="5" fill="#61A5C2"/>
  <circle cx="620" cy="350" r="5" fill="#4A8BA8"/>
  <circle cx="720" cy="300" r="4" fill="#7BB3D1"/>
  <circle cx="770" cy="380" r="3" fill="#61A5C2"/>
  <circle cx="770" cy="520" r="3" fill="#4A8BA8"/>
  <circle cx="670" cy="520" r="3" fill="#7BB3D1"/>
  <circle cx="670" cy="380" r="3" fill="#61A5C2"/>
  
  <!-- Hexagon outline -->
  <line x1="720" y1="400" x2="820" y2="350" stroke="url(#grad2)" stroke-width="3"/>
  <line x1="820" y1="350" x2="870" y2="450" stroke="url(#grad2)" stroke-width="3"/>
  <line x1="870" y1="450" x2="820" y2="550" stroke="url(#grad2)" stroke-width="3"/>
  <line x1="820" y1="550" x2="720" y2="600" stroke="url(#grad2)" stroke-width="3"/>
  <line x1="720" y1="600" x2="620" y2="550" stroke="url(#grad2)" stroke-width="3"/>
  <line x1="620" y1="550" x2="570" y2="450" stroke="url(#grad2)" stroke-width="3"/>
  <line x1="570" y1="450" x2="620" y2="350" stroke="url(#grad2)" stroke-width="3"/>
  <line x1="620" y1="350" x2="720" y2="400" stroke="url(#grad2)" stroke-width="3"/>
  
  <!-- Dense inner connections - Reduced for text clarity -->
  <line x1="720" y1="400" x2="870" y2="450" stroke="#61A5C2" stroke-width="1" opacity="0.3"/>
  <line x1="720" y1="400" x2="570" y2="450" stroke="#61A5C2" stroke-width="1" opacity="0.3"/>
  <line x1="820" y1="350" x2="620" y2="550" stroke="#7BB3D1" stroke-width="1" opacity="0.2"/>
  <line x1="870" y1="450" x2="620" y2="350" stroke="#7BB3D1" stroke-width="1" opacity="0.2"/>
  
  <!-- Inner network -->
  <line x1="770" y1="380" x2="770" y2="520" stroke="#61A5C2" stroke-width="1" opacity="0.4"/>
  <line x1="670" y1="380" x2="670" y2="520" stroke="#61A5C2" stroke-width="1" opacity="0.4"/>
  <line x1="670" y1="380" x2="770" y2="520" stroke="#7BB3D1" stroke-width="1" opacity="0.4"/>
  <line x1="770" y1="380" x2="670" y2="520" stroke="#4A8BA8" stroke-width="1" opacity="0.4"/>
</g>

<!-- Complex neural network - Bottom left quadrant -->
<g opacity="0.6">
  <circle cx="200" cy="700" r="5" fill="#61A5C2"/>
  <circle cx="350" cy="650" r="4" fill="#4A8BA8"/>
  <circle cx="500" cy="720" r="6" fill="#7BB3D1"/>
  <circle cx="450" cy="850" r="5" fill="#61A5C2"/>
  <circle cx="300" cy="900" r="4" fill="#4A8BA8"/>
  <circle cx="150" cy="830" r="5" fill="#7BB3D1"/>
  <circle cx="100" cy="750" r="4" fill="#61A5C2"/>
  <circle cx="280" cy="780" r="3" fill="#4A8BA8"/>
  <circle cx="380" cy="760" r="4" fill="#7BB3D1"/>
  <circle cx="320" cy="820" r="3" fill="#61A5C2"/>
  
  <!-- Primary network -->
  <line x1="200" y1="700" x2="350" y2="650" stroke="url(#grad2)" stroke-width="2"/>
  <line x1="350" y1="650" x2="500" y2="720" stroke="url(#grad2)" stroke-width="2"/>
  <line x1="500" y1="720" x2="450" y2="850" stroke="url(#grad2)" stroke-width="2"/>
  <line x1="450" y1="850" x2="300" y2="900" stroke="url(#grad2)" stroke-width="2"/>
  <line x1="300" y1="900" x2="150" y2="830" stroke="url(#grad2)" stroke-width="2"/>
  <line x1="150" y1="830" x2="100" y2="750" stroke="url(#grad2)" stroke-width="2"/>
  <line x1="100" y1="750" x2="200" y2="700" stroke="url(#grad2)" stroke-width="2"/>
  
  <!-- Dense cross connections -->
  <line x1="200" y1="700" x2="450" y2="850" stroke="#61A5C2" stroke-width="1" opacity="0.6"/>
  <line x1="350" y1="650" x2="300" y2="900" stroke="#61A5C2" stroke-width="1" opacity="0.6"/>
  <line x1="500" y1="720" x2="100" y2="750" stroke="#61A5C2" stroke-width="1" opacity="0.6"/>
  <line x1="280" y1="780" x2="380" y2="760" stroke="#7BB3D1" stroke-width="1" opacity="0.5"/>
  <line x1="280" y1="780" x2="320" y2="820" stroke="#7BB3D1" stroke-width="1" opacity="0.5"/>
  <line x1="380" y1="760" x2="150" y2="830" stroke="#4A8BA8" stroke-width="1" opacity="0.5"/>
  <line x1="320" y1="820" x2="500" y2="720" stroke="#4A8BA8" stroke-width="1" opacity="0.5"/>
</g>

<!-- Complex neural network - Bottom right quadrant -->
<g opacity="0.6">
  <circle cx="1100" cy="650" r="5" fill="#61A5C2"/>
  <circle cx="1250" cy="600" r="4" fill="#7BB3D1"/>
  <circle cx="1380" cy="680" r="6" fill="#4A8BA8"/>
  <circle cx="1340" cy="780" r="5" fill="#61A5C2"/>
  <circle cx="1200" cy="850" r="4" fill="#7BB3D1"/>
  <circle cx="1050" cy="800" r="5" fill="#4A8BA8"/>
  <circle cx="1000" cy="720" r="4" fill="#61A5C2"/>
  <circle cx="1180" cy="720" r="3" fill="#7BB3D1"/>
  <circle cx="1280" cy="740" r="4" fill="#4A8BA8"/>
  <circle cx="1220" cy="780" r="3" fill="#61A5C2"/>
  
  <!-- Primary network -->
  <line x1="1100" y1="650" x2="1250" y2="600" stroke="url(#grad1)" stroke-width="2"/>
  <line x1="1250" y1="600" x2="1380" y2="680" stroke="url(#grad1)" stroke-width="2"/>
  <line x1="1380" y1="680" x2="1340" y2="780" stroke="url(#grad1)" stroke-width="2"/>
  <line x1="1340" y1="780" x2="1200" y2="850" stroke="url(#grad1)" stroke-width="2"/>
  <line x1="1200" y1="850" x2="1050" y2="800" stroke="url(#grad1)" stroke-width="2"/>
  <line x1="1050" y1="800" x2="1000" y2="720" stroke="url(#grad1)" stroke-width="2"/>
  <line x1="1000" y1="720" x2="1100" y2="650" stroke="url(#grad1)" stroke-width="2"/>
  
  <!-- Dense cross connections -->
  <line x1="1100" y1="650" x2="1340" y2="780" stroke="#61A5C2" stroke-width="1" opacity="0.6"/>
  <line x1="1250" y1="600" x2="1200" y2="850" stroke="#61A5C2" stroke-width="1" opacity="0.6"/>
  <line x1="1380" y1="680" x2="1000" y2="720" stroke="#61A5C2" stroke-width="1" opacity="0.6"/>
  <line x1="1180" y1="720" x2="1280" y2="740" stroke="#7BB3D1" stroke-width="1" opacity="0.5"/>
  <line x1="1180" y1="720" x2="1220" y2="780" stroke="#7BB3D1" stroke-width="1" opacity="0.5"/>
  <line x1="1280" y1="740" x2="1050" y2="800" stroke="#4A8BA8" stroke-width="1" opacity="0.5"/>
  <line x1="1220" y1="780" x2="1380" y2="680" stroke="#4A8BA8" stroke-width="1" opacity="0.5"/>
</g>

<!-- Smooth transition elements for right edge -->
<g opacity="0.3">
  <circle cx="1420" cy="200" r="3" fill="#61A5C2"/>
  <circle cx="1430" cy="300" r="2" fill="#7BB3D1"/>
  <circle cx="1425" cy="400" r="3" fill="#4A8BA8"/>
  <circle cx="1435" cy="500" r="2" fill="#61A5C2"/>
  <circle cx="1420" cy="600" r="3" fill="#7BB3D1"/>
  <circle cx="1430" cy="700" r="2" fill="#4A8BA8"/>
  
  <line x1="1420" y1="200" x2="1430" y2="300" stroke="#61A5C2" stroke-width="1" opacity="0.4"/>
  <line x1="1430" y1="300" x2="1425" y2="400" stroke="#7BB3D1" stroke-width="1" opacity="0.4"/>
  <line x1="1425" y1="400" x2="1435" y2="500" stroke="#4A8BA8" stroke-width="1" opacity="0.4"/>
  <line x1="1435" y1="500" x2="1420" y2="600" stroke="#61A5C2" stroke-width="1" opacity="0.4"/>
  <line x1="1420" y1="600" x2="1430" y2="700" stroke="#7BB3D1" stroke-width="1" opacity="0.4"/>
</g>

</svg>