<svg width="1656" height="1024" viewBox="0 0 1656 1024" fill="none" xmlns="http://www.w3.org/2000/svg">
<rect width="1656" height="1024" fill="white"/>

<!-- Smooth transition elements for left edge -->
<g opacity="0.3">
  <circle cx="20" cy="180" r="2" fill="#61A5C2"/>
  <circle cx="15" cy="280" r="3" fill="#7BB3D1"/>
  <circle cx="25" cy="380" r="2" fill="#4A8BA8"/>
  <circle cx="10" cy="480" r="3" fill="#61A5C2"/>
  <circle cx="20" cy="580" r="2" fill="#7BB3D1"/>
  <circle cx="15" cy="680" r="3" fill="#4A8BA8"/>
  
  <line x1="20" y1="180" x2="15" y2="280" stroke="#61A5C2" stroke-width="1" opacity="0.4"/>
  <line x1="15" y1="280" x2="25" y2="380" stroke="#7BB3D1" stroke-width="1" opacity="0.4"/>
  <line x1="25" y1="380" x2="10" y2="480" stroke="#4A8BA8" stroke-width="1" opacity="0.4"/>
  <line x1="10" y1="480" x2="20" y2="580" stroke="#61A5C2" stroke-width="1" opacity="0.4"/>
  <line x1="20" y1="580" x2="15" y2="680" stroke="#7BB3D1" stroke-width="1" opacity="0.4"/>
</g>

<!-- Advanced gradient definitions -->
<defs>
  <linearGradient id="grad3" x1="0%" y1="0%" x2="100%" y2="100%">
    <stop offset="0%" style="stop-color:#61A5C2;stop-opacity:0.8" />
    <stop offset="50%" style="stop-color:#7BB3D1;stop-opacity:0.6" />
    <stop offset="100%" style="stop-color:#4A8BA8;stop-opacity:0.4" />
  </linearGradient>
  <linearGradient id="grad4" x1="0%" y1="0%" x2="0%" y2="100%">
    <stop offset="0%" style="stop-color:#61A5C2;stop-opacity:0.8" />
    <stop offset="100%" style="stop-color:#7BB3D1;stop-opacity:0.4" />
  </linearGradient>
</defs>

<!-- Large complex neural network - Top left -->
<g opacity="0.5">
  <circle cx="150" cy="120" r="5" fill="#61A5C2"/>
  <circle cx="280" cy="80" r="4" fill="#7BB3D1"/>
  <circle cx="420" cy="140" r="6" fill="#4A8BA8"/>
  <circle cx="480" cy="260" r="5" fill="#61A5C2"/>
  <circle cx="380" cy="340" r="4" fill="#7BB3D1"/>
  <circle cx="240" cy="320" r="5" fill="#4A8BA8"/>
  <circle cx="120" cy="240" r="4" fill="#61A5C2"/>
  <circle cx="200" cy="180" r="3" fill="#7BB3D1"/>
  <circle cx="320" cy="200" r="4" fill="#4A8BA8"/>
  <circle cx="400" cy="280" r="3" fill="#61A5C2"/>
  <circle cx="300" cy="280" r="3" fill="#7BB3D1"/>
  <circle cx="180" cy="280" r="3" fill="#4A8BA8"/>
  
  <!-- Primary network -->
  <line x1="150" y1="120" x2="280" y2="80" stroke="url(#grad3)" stroke-width="2"/>
  <line x1="280" y1="80" x2="420" y2="140" stroke="url(#grad3)" stroke-width="2"/>
  <line x1="420" y1="140" x2="480" y2="260" stroke="url(#grad3)" stroke-width="2"/>
  <line x1="480" y1="260" x2="380" y2="340" stroke="url(#grad3)" stroke-width="2"/>
  <line x1="380" y1="340" x2="240" y2="320" stroke="url(#grad3)" stroke-width="2"/>
  <line x1="240" y1="320" x2="120" y2="240" stroke="url(#grad3)" stroke-width="2"/>
  <line x1="120" y1="240" x2="150" y2="120" stroke="url(#grad3)" stroke-width="2"/>
  
  <!-- Dense cross connections -->
  <line x1="150" y1="120" x2="480" y2="260" stroke="#61A5C2" stroke-width="1" opacity="0.6"/>
  <line x1="280" y1="80" x2="380" y2="340" stroke="#61A5C2" stroke-width="1" opacity="0.6"/>
  <line x1="420" y1="140" x2="120" y2="240" stroke="#61A5C2" stroke-width="1" opacity="0.6"/>
  <line x1="200" y1="180" x2="320" y2="200" stroke="#7BB3D1" stroke-width="1" opacity="0.5"/>
  <line x1="200" y1="180" x2="400" y2="280" stroke="#7BB3D1" stroke-width="1" opacity="0.5"/>
  <line x1="320" y1="200" x2="300" y2="280" stroke="#4A8BA8" stroke-width="1" opacity="0.5"/>
  <line x1="400" y1="280" x2="180" y2="280" stroke="#4A8BA8" stroke-width="1" opacity="0.5"/>
  <line x1="300" y1="280" x2="420" y2="140" stroke="#61A5C2" stroke-width="1" opacity="0.4"/>
  <line x1="180" y1="280" x2="480" y2="260" stroke="#7BB3D1" stroke-width="1" opacity="0.4"/>
</g>

<!-- Complex central processing hub - Reduced for text readability -->
<g opacity="0.25">
  <circle cx="720" cy="400" r="7" fill="#61A5C2"/>
  <circle cx="820" cy="340" r="5" fill="#7BB3D1"/>
  <circle cx="880" cy="440" r="6" fill="#4A8BA8"/>
  <circle cx="840" cy="540" r="5" fill="#61A5C2"/>
  <circle cx="740" cy="580" r="6" fill="#7BB3D1"/>
  <circle cx="640" cy="540" r="5" fill="#4A8BA8"/>
  <circle cx="580" cy="440" r="6" fill="#61A5C2"/>
  <circle cx="620" cy="340" r="5" fill="#7BB3D1"/>
  <circle cx="720" cy="320" r="4" fill="#4A8BA8"/>
  <circle cx="780" cy="370" r="3" fill="#61A5C2"/>
  <circle cx="800" cy="430" r="4" fill="#7BB3D1"/>
  <circle cx="780" cy="490" r="3" fill="#4A8BA8"/>
  <circle cx="720" cy="520" r="4" fill="#61A5C2"/>
  <circle cx="660" cy="490" r="3" fill="#7BB3D1"/>
  <circle cx="640" cy="430" r="4" fill="#4A8BA8"/>
  <circle cx="660" cy="370" r="3" fill="#61A5C2"/>
  
  <!-- Octagonal pattern -->
  <line x1="720" y1="400" x2="820" y2="340" stroke="url(#grad4)" stroke-width="3"/>
  <line x1="820" y1="340" x2="880" y2="440" stroke="url(#grad4)" stroke-width="3"/>
  <line x1="880" y1="440" x2="840" y2="540" stroke="url(#grad4)" stroke-width="3"/>
  <line x1="840" y1="540" x2="740" y2="580" stroke="url(#grad4)" stroke-width="3"/>
  <line x1="740" y1="580" x2="640" y2="540" stroke="url(#grad4)" stroke-width="3"/>
  <line x1="640" y1="540" x2="580" y2="440" stroke="url(#grad4)" stroke-width="3"/>
  <line x1="580" y1="440" x2="620" y2="340" stroke="url(#grad4)" stroke-width="3"/>
  <line x1="620" y1="340" x2="720" y2="400" stroke="url(#grad4)" stroke-width="3"/>
  
  <!-- Dense inner network - Reduced for text clarity -->
  <line x1="720" y1="400" x2="880" y2="440" stroke="#61A5C2" stroke-width="1" opacity="0.2"/>
  <line x1="720" y1="400" x2="580" y2="440" stroke="#61A5C2" stroke-width="1" opacity="0.2"/>
  <line x1="820" y1="340" x2="740" y2="580" stroke="#7BB3D1" stroke-width="1" opacity="0.15"/>
  <line x1="880" y1="440" x2="620" y2="340" stroke="#7BB3D1" stroke-width="1" opacity="0.15"/>
  
  <!-- Inner octagon -->
  <line x1="780" y1="370" x2="800" y2="430" stroke="#61A5C2" stroke-width="1" opacity="0.5"/>
  <line x1="800" y1="430" x2="780" y2="490" stroke="#61A5C2" stroke-width="1" opacity="0.5"/>
  <line x1="780" y1="490" x2="720" y2="520" stroke="#61A5C2" stroke-width="1" opacity="0.5"/>
  <line x1="720" y1="520" x2="660" y2="490" stroke="#61A5C2" stroke-width="1" opacity="0.5"/>
  <line x1="660" y1="490" x2="640" y2="430" stroke="#61A5C2" stroke-width="1" opacity="0.5"/>
  <line x1="640" y1="430" x2="660" y2="370" stroke="#61A5C2" stroke-width="1" opacity="0.5"/>
  <line x1="660" y1="370" x2="720" y2="320" stroke="#61A5C2" stroke-width="1" opacity="0.5"/>
  <line x1="720" y1="320" x2="780" y2="370" stroke="#61A5C2" stroke-width="1" opacity="0.5"/>
  
  <!-- Cross connections -->
  <line x1="780" y1="370" x2="660" y2="490" stroke="#7BB3D1" stroke-width="1" opacity="0.4"/>
  <line x1="800" y1="430" x2="640" y2="430" stroke="#4A8BA8" stroke-width="1" opacity="0.4"/>
  <line x1="780" y1="490" x2="660" y2="370" stroke="#7BB3D1" stroke-width="1" opacity="0.4"/>
</g>

<!-- Advanced constellation - Top right -->
<g opacity="0.5">
  <circle cx="1050" cy="100" r="5" fill="#61A5C2"/>
  <circle cx="1180" cy="60" r="4" fill="#7BB3D1"/>
  <circle cx="1320" cy="120" r="6" fill="#4A8BA8"/>
  <circle cx="1380" cy="240" r="5" fill="#61A5C2"/>
  <circle cx="1320" cy="360" r="4" fill="#7BB3D1"/>
  <circle cx="1180" cy="380" r="5" fill="#4A8BA8"/>
  <circle cx="1050" cy="320" r="4" fill="#61A5C2"/>
  <circle cx="1000" cy="200" r="5" fill="#7BB3D1"/>
  <circle cx="1120" cy="180" r="3" fill="#4A8BA8"/>
  <circle cx="1250" cy="160" r="4" fill="#61A5C2"/>
  <circle cx="1300" cy="280" r="3" fill="#7BB3D1"/>
  <circle cx="1200" cy="300" r="4" fill="#4A8BA8"/>
  <circle cx="1100" cy="260" r="3" fill="#61A5C2"/>
  
  <!-- Primary network -->
  <line x1="1050" y1="100" x2="1180" y2="60" stroke="url(#grad3)" stroke-width="2"/>
  <line x1="1180" y1="60" x2="1320" y2="120" stroke="url(#grad3)" stroke-width="2"/>
  <line x1="1320" y1="120" x2="1380" y2="240" stroke="url(#grad3)" stroke-width="2"/>
  <line x1="1380" y1="240" x2="1320" y2="360" stroke="url(#grad3)" stroke-width="2"/>
  <line x1="1320" y1="360" x2="1180" y2="380" stroke="url(#grad3)" stroke-width="2"/>
  <line x1="1180" y1="380" x2="1050" y2="320" stroke="url(#grad3)" stroke-width="2"/>
  <line x1="1050" y1="320" x2="1000" y2="200" stroke="url(#grad3)" stroke-width="2"/>
  <line x1="1000" y1="200" x2="1050" y2="100" stroke="url(#grad3)" stroke-width="2"/>
  
  <!-- Dense cross connections -->
  <line x1="1050" y1="100" x2="1380" y2="240" stroke="#61A5C2" stroke-width="1" opacity="0.6"/>
  <line x1="1180" y1="60" x2="1320" y2="360" stroke="#61A5C2" stroke-width="1" opacity="0.6"/>
  <line x1="1320" y1="120" x2="1000" y2="200" stroke="#61A5C2" stroke-width="1" opacity="0.6"/>
  <line x1="1120" y1="180" x2="1250" y2="160" stroke="#7BB3D1" stroke-width="1" opacity="0.5"/>
  <line x1="1250" y1="160" x2="1300" y2="280" stroke="#7BB3D1" stroke-width="1" opacity="0.5"/>
  <line x1="1300" y1="280" x2="1200" y2="300" stroke="#4A8BA8" stroke-width="1" opacity="0.5"/>
  <line x1="1200" y1="300" x2="1100" y2="260" stroke="#4A8BA8" stroke-width="1" opacity="0.5"/>
  <line x1="1100" y1="260" x2="1320" y2="120" stroke="#61A5C2" stroke-width="1" opacity="0.4"/>
  <line x1="1120" y1="180" x2="1380" y2="240" stroke="#7BB3D1" stroke-width="1" opacity="0.4"/>
</g>

<!-- Complex bottom network -->
<g opacity="0.6">
  <circle cx="200" cy="650" r="5" fill="#61A5C2"/>
  <circle cx="350" cy="600" r="4" fill="#7BB3D1"/>
  <circle cx="500" cy="680" r="6" fill="#4A8BA8"/>
  <circle cx="650" cy="720" r="5" fill="#61A5C2"/>
  <circle cx="800" cy="760" r="4" fill="#7BB3D1"/>
  <circle cx="950" cy="800" r="5" fill="#4A8BA8"/>
  <circle cx="1100" cy="780" r="4" fill="#61A5C2"/>
  <circle cx="1250" cy="740" r="6" fill="#7BB3D1"/>
  <circle cx="1350" cy="680" r="5" fill="#4A8BA8"/>
  <circle cx="300" cy="720" r="3" fill="#61A5C2"/>
  <circle cx="450" cy="750" r="4" fill="#7BB3D1"/>
  <circle cx="600" cy="780" r="3" fill="#4A8BA8"/>
  <circle cx="750" cy="800" r="4" fill="#61A5C2"/>
  <circle cx="900" cy="820" r="3" fill="#7BB3D1"/>
  <circle cx="1050" cy="840" r="4" fill="#4A8BA8"/>
  <circle cx="1200" cy="800" r="3" fill="#61A5C2"/>
  
  <!-- Primary chain -->
  <line x1="200" y1="650" x2="350" y2="600" stroke="url(#grad4)" stroke-width="2"/>
  <line x1="350" y1="600" x2="500" y2="680" stroke="url(#grad4)" stroke-width="2"/>
  <line x1="500" y1="680" x2="650" y2="720" stroke="url(#grad4)" stroke-width="2"/>
  <line x1="650" y1="720" x2="800" y2="760" stroke="url(#grad4)" stroke-width="2"/>
  <line x1="800" y1="760" x2="950" y2="800" stroke="url(#grad4)" stroke-width="2"/>
  <line x1="950" y1="800" x2="1100" y2="780" stroke="url(#grad4)" stroke-width="2"/>
  <line x1="1100" y1="780" x2="1250" y2="740" stroke="url(#grad4)" stroke-width="2"/>
  <line x1="1250" y1="740" x2="1350" y2="680" stroke="url(#grad4)" stroke-width="2"/>
  
  <!-- Secondary chain -->
  <line x1="300" y1="720" x2="450" y2="750" stroke="#61A5C2" stroke-width="1" opacity="0.6"/>
  <line x1="450" y1="750" x2="600" y2="780" stroke="#61A5C2" stroke-width="1" opacity="0.6"/>
  <line x1="600" y1="780" x2="750" y2="800" stroke="#61A5C2" stroke-width="1" opacity="0.6"/>
  <line x1="750" y1="800" x2="900" y2="820" stroke="#61A5C2" stroke-width="1" opacity="0.6"/>
  <line x1="900" y1="820" x2="1050" y2="840" stroke="#61A5C2" stroke-width="1" opacity="0.6"/>
  <line x1="1050" y1="840" x2="1200" y2="800" stroke="#61A5C2" stroke-width="1" opacity="0.6"/>
  
  <!-- Cross connections -->
  <line x1="200" y1="650" x2="500" y2="680" stroke="#7BB3D1" stroke-width="1" opacity="0.4"/>
  <line x1="350" y1="600" x2="650" y2="720" stroke="#7BB3D1" stroke-width="1" opacity="0.4"/>
  <line x1="500" y1="680" x2="800" y2="760" stroke="#4A8BA8" stroke-width="1" opacity="0.4"/>
  <line x1="650" y1="720" x2="950" y2="800" stroke="#4A8BA8" stroke-width="1" opacity="0.4"/>
  <line x1="800" y1="760" x2="1100" y2="780" stroke="#61A5C2" stroke-width="1" opacity="0.4"/>
  <line x1="950" y1="800" x2="1250" y2="740" stroke="#7BB3D1" stroke-width="1" opacity="0.4"/>
  <line x1="1100" y1="780" x2="1350" y2="680" stroke="#4A8BA8" stroke-width="1" opacity="0.4"/>
</g>

</svg>